<svg xmlns="http://www.w3.org/2000/svg" xmlns:xlink="http://www.w3.org/1999/xlink" width="40" zoomAndPan="magnify" viewBox="0 0 30 30.000001" height="40" preserveAspectRatio="xMidYMid meet" version="1.0"><defs><clipPath id="7fb7beb166"><path d="M 0.484375 0 L 27.339844 0 L 27.339844 29.03125 L 0.484375 29.03125 Z M 0.484375 0 " clip-rule="nonzero"/></clipPath></defs><g clip-path="url(#7fb7beb166)"><path fill="#ff7e00" d="M 18.890625 18.929688 C 16.398438 15.34375 20.46875 6.816406 20.46875 6.816406 C 21.886719 6.375 22.917969 5.054688 22.917969 3.484375 C 22.917969 1.558594 21.359375 0 19.433594 0 C 18.382812 0 17.445312 0.460938 16.808594 1.195312 L 14.316406 0 C 14.375 0.847656 15.5 1.519531 16.324219 1.898438 C 16.21875 2.101562 16.128906 2.316406 16.066406 2.546875 C 16.046875 2.613281 14.882812 3.730469 14.882812 3.730469 L 15.976562 4.035156 C 16.128906 5.003906 16.683594 5.84375 17.464844 6.375 C 15.40625 7.464844 13.808594 9.023438 12.851562 10.640625 L 12.851562 5.515625 L 2.324219 5.515625 L 2.324219 16.050781 L 12.132812 16.050781 C 9.859375 16.566406 7.78125 17.964844 5.78125 23.703125 C 3.125 22.09375 0.492188 23.382812 0.492188 23.382812 L 7.058594 28.527344 C 7.058594 28.527344 8.722656 21.316406 14.203125 19.871094 C 14.363281 19.828125 14.511719 19.777344 14.652344 19.722656 C 15.308594 21.832031 16.933594 23.972656 22.917969 24.515625 C 21.417969 27.164062 23.445312 29.191406 23.445312 29.191406 L 27.285156 22.097656 C 27.285156 22.097656 21.390625 22.507812 18.890625 18.929688 Z M 14.648438 13.671875 C 14.105469 13.875 13.484375 14.003906 12.859375 14.085938 C 12.527344 14.125 12.195312 14.15625 11.863281 14.167969 C 9.953125 14.253906 8.203125 13.96875 8.203125 13.96875 C 6.558594 14.703125 4.632812 14.574219 4.539062 13.96875 C 4.4375 13.332031 5.707031 13.332031 6.050781 13.34375 C 4.328125 13.246094 3.761719 13.097656 3.738281 12.636719 C 3.714844 12.117188 4.667969 12.046875 6.371094 12.199219 C 5.015625 11.878906 4.113281 11.789062 4.351562 11.132812 C 4.585938 10.472656 6.15625 10.972656 6.9375 11.382812 C 6.777344 10.6875 6.84375 10.097656 7.363281 10.050781 C 7.882812 10.003906 8.226562 10.390625 8.40625 12.199219 C 9.894531 12.199219 11.285156 11.972656 12.386719 11.582031 C 12.558594 11.523438 12.714844 11.457031 12.867188 11.394531 C 13.460938 11.132812 13.941406 10.816406 14.28125 10.460938 C 14.328125 10.40625 14.375 10.355469 14.417969 10.300781 L 16.578125 12.597656 C 15.960938 13.039062 15.289062 13.425781 14.648438 13.671875 Z M 17.1875 3.769531 C 16.847656 3.769531 16.574219 3.496094 16.574219 3.15625 C 16.574219 2.820312 16.847656 2.546875 17.1875 2.546875 C 17.523438 2.546875 17.800781 2.820312 17.800781 3.15625 C 17.800781 3.496094 17.523438 3.769531 17.1875 3.769531 Z M 17.1875 3.769531 " fill-opacity="1" fill-rule="nonzero"/></g></svg>