<svg xmlns="http://www.w3.org/2000/svg" xmlns:xlink="http://www.w3.org/1999/xlink" width="1104" zoomAndPan="magnify" viewBox="0 0 828 449.999984" height="600" preserveAspectRatio="xMidYMid meet" version="1.0"><defs><g/><clipPath id="a862a1b580"><path d="M 0.878906 1.347656 L 332.304688 1.347656 L 332.304688 362.589844 L 0.878906 362.589844 Z M 0.878906 1.347656 " clip-rule="nonzero"/></clipPath><clipPath id="6a9855708d"><path d="M 261 78 L 816.878906 78 L 816.878906 212 L 261 212 Z M 261 78 " clip-rule="nonzero"/></clipPath><clipPath id="4e09d2abf8"><rect x="0" width="556" y="0" height="134"/></clipPath><clipPath id="55a49e3336"><rect x="0" width="406" y="0" height="98"/></clipPath><clipPath id="05a140e2ca"><rect x="0" width="817" y="0" height="364"/></clipPath></defs><g transform="matrix(1, 0, 0, 1, 2, 31)"><g clip-path="url(#05a140e2ca)"><g clip-path="url(#a862a1b580)"><path fill="#ff7e00" d="M 228.640625 235.640625 C 197.789062 191.28125 248.144531 85.730469 248.144531 85.730469 C 265.699219 80.242188 278.488281 63.914062 278.488281 44.480469 C 278.488281 20.636719 259.199219 1.347656 235.359375 1.347656 C 222.351562 1.347656 210.722656 7.054688 202.847656 16.160156 L 172 1.347656 C 172.71875 11.824219 186.664062 20.132812 196.851562 24.828125 C 195.550781 27.355469 194.464844 30.03125 193.671875 32.847656 C 193.453125 33.714844 179.007812 47.515625 179.007812 47.515625 L 192.589844 51.269531 C 194.464844 63.261719 201.328125 73.667969 211.011719 80.242188 C 185.507812 93.75 165.710938 113.039062 153.863281 133.054688 L 153.863281 69.621094 L 23.605469 69.621094 L 23.605469 200.023438 L 144.976562 200.023438 C 116.875 206.382812 91.15625 223.722656 66.375 294.738281 C 33.503906 274.796875 0.921875 290.765625 0.921875 290.765625 L 82.195312 354.414062 C 82.195312 354.414062 102.785156 265.191406 170.625 247.273438 C 172.574219 246.765625 174.453125 246.117188 176.1875 245.46875 C 184.28125 271.546875 204.4375 298.0625 278.488281 304.78125 C 259.921875 337.582031 284.992188 362.648438 284.992188 362.648438 L 332.527344 274.871094 C 332.527344 274.871094 259.558594 279.929688 228.640625 235.640625 Z M 176.117188 170.546875 C 169.398438 173.078125 161.738281 174.667969 154.007812 175.675781 C 149.890625 176.183594 145.773438 176.542969 141.65625 176.6875 C 118.03125 177.773438 96.355469 174.234375 96.355469 174.234375 C 75.984375 183.335938 52.140625 181.746094 50.988281 174.234375 C 49.757812 166.359375 65.4375 166.359375 69.699219 166.503906 C 48.386719 165.273438 41.378906 163.46875 41.089844 157.761719 C 40.800781 151.332031 52.574219 150.464844 73.671875 152.34375 C 56.910156 148.367188 45.710938 147.285156 48.675781 139.121094 C 51.566406 130.957031 71 137.171875 80.679688 142.226562 C 78.730469 133.628906 79.523438 126.332031 85.953125 125.757812 C 92.382812 125.179688 96.644531 129.945312 98.886719 152.34375 C 117.308594 152.34375 134.503906 149.523438 148.15625 144.683594 C 150.253906 143.960938 152.203125 143.167969 154.082031 142.371094 C 161.449219 139.121094 167.375 135.21875 171.566406 130.8125 C 172.140625 130.164062 172.71875 129.511719 173.296875 128.863281 L 200.03125 157.253906 C 192.371094 162.746094 184.0625 167.515625 176.117188 170.546875 Z M 207.542969 48.019531 C 203.351562 48.019531 199.957031 44.625 199.957031 40.433594 C 199.957031 36.242188 203.351562 32.847656 207.542969 32.847656 C 211.734375 32.847656 215.128906 36.242188 215.128906 40.433594 C 215.128906 44.625 211.734375 48.019531 207.542969 48.019531 Z M 207.542969 48.019531 " fill-opacity="1" fill-rule="nonzero"/></g><g clip-path="url(#6a9855708d)"><g transform="matrix(1, 0, 0, 1, 261, 78)"><g clip-path="url(#4e09d2abf8)"><g fill="#000000" fill-opacity="1"><g transform="translate(0.535463, 99.946634)"><g><path d="M 51.203125 -65.703125 L 51.203125 -55.0625 L 33.703125 -55.0625 L 33.703125 0 L 20.515625 0 L 20.515625 -55.0625 L 3.015625 -55.0625 L 3.015625 -65.703125 Z M 51.203125 -65.703125 "/></g></g></g><g fill="#000000" fill-opacity="1"><g transform="translate(50.139272, 99.946634)"><g><path d="M 19.671875 -65.703125 L 19.671875 0 L 6.5 0 L 6.5 -65.703125 Z M 19.671875 -65.703125 "/></g></g></g><g fill="#000000" fill-opacity="1"><g transform="translate(71.599702, 99.946634)"><g><path d="M 52.234375 -45.9375 C 50.734375 -48.695312 48.664062 -50.796875 46.03125 -52.234375 C 43.394531 -53.679688 40.316406 -54.40625 36.796875 -54.40625 C 32.910156 -54.40625 29.460938 -53.523438 26.453125 -51.765625 C 23.441406 -50.015625 21.085938 -47.503906 19.390625 -44.234375 C 17.691406 -40.972656 16.84375 -37.207031 16.84375 -32.9375 C 16.84375 -28.550781 17.707031 -24.722656 19.4375 -21.453125 C 21.164062 -18.191406 23.566406 -15.679688 26.640625 -13.921875 C 29.710938 -12.171875 33.289062 -11.296875 37.375 -11.296875 C 42.382812 -11.296875 46.488281 -12.628906 49.6875 -15.296875 C 52.894531 -17.960938 55 -21.679688 56 -26.453125 L 33.421875 -26.453125 L 33.421875 -36.515625 L 69 -36.515625 L 69 -25.03125 C 68.113281 -20.457031 66.226562 -16.222656 63.34375 -12.328125 C 60.457031 -8.441406 56.738281 -5.320312 52.1875 -2.96875 C 47.644531 -0.613281 42.546875 0.5625 36.890625 0.5625 C 30.554688 0.5625 24.832031 -0.863281 19.71875 -3.71875 C 14.601562 -6.570312 10.585938 -10.539062 7.671875 -15.625 C 4.753906 -20.707031 3.296875 -26.476562 3.296875 -32.9375 C 3.296875 -39.40625 4.753906 -45.195312 7.671875 -50.3125 C 10.585938 -55.425781 14.601562 -59.410156 19.71875 -62.265625 C 24.832031 -65.117188 30.523438 -66.546875 36.796875 -66.546875 C 44.203125 -66.546875 50.632812 -64.738281 56.09375 -61.125 C 61.550781 -57.519531 65.316406 -52.457031 67.390625 -45.9375 Z M 52.234375 -45.9375 "/></g></g></g><g fill="#000000" fill-opacity="1"><g transform="translate(139.181388, 99.946634)"><g><path d="M 19.671875 -55.0625 L 19.671875 -38.59375 L 41.796875 -38.59375 L 41.796875 -28.140625 L 19.671875 -28.140625 L 19.671875 -10.734375 L 44.609375 -10.734375 L 44.609375 0 L 6.5 0 L 6.5 -65.796875 L 44.609375 -65.796875 L 44.609375 -55.0625 Z M 19.671875 -55.0625 "/></g></g></g><g fill="#000000" fill-opacity="1"><g transform="translate(184.549561, 99.946634)"><g><path d="M 40.375 0 L 25.890625 -25.609375 L 19.671875 -25.609375 L 19.671875 0 L 6.5 0 L 6.5 -65.703125 L 31.15625 -65.703125 C 36.238281 -65.703125 40.566406 -64.804688 44.140625 -63.015625 C 47.722656 -61.222656 50.40625 -58.804688 52.1875 -55.765625 C 53.976562 -52.722656 54.875 -49.320312 54.875 -45.5625 C 54.875 -41.226562 53.617188 -37.316406 51.109375 -33.828125 C 48.597656 -30.347656 44.863281 -27.953125 39.90625 -26.640625 L 55.625 0 Z M 19.671875 -35.484375 L 30.6875 -35.484375 C 34.257812 -35.484375 36.925781 -36.34375 38.6875 -38.0625 C 40.445312 -39.789062 41.328125 -42.195312 41.328125 -45.28125 C 41.328125 -48.289062 40.445312 -50.625 38.6875 -52.28125 C 36.925781 -53.945312 34.257812 -54.78125 30.6875 -54.78125 L 19.671875 -54.78125 Z M 19.671875 -35.484375 "/></g></g></g><g fill="#000000" fill-opacity="1"><g transform="translate(240.17738, 99.946634)"><g/></g></g><g fill="#000000" fill-opacity="1"><g transform="translate(257.872816, 99.946634)"><g><path d="M 58.734375 -65.703125 L 36.515625 -22.875 L 36.515625 0 L 23.34375 0 L 23.34375 -22.875 L 1.03125 -65.703125 L 15.90625 -65.703125 L 30.03125 -35.671875 L 44.046875 -65.703125 Z M 58.734375 -65.703125 "/></g></g></g><g fill="#000000" fill-opacity="1"><g transform="translate(313.030002, 99.946634)"><g><path d="M 36.984375 0.65625 C 30.835938 0.65625 25.191406 -0.785156 20.046875 -3.671875 C 14.898438 -6.554688 10.820312 -10.554688 7.8125 -15.671875 C 4.800781 -20.785156 3.296875 -26.570312 3.296875 -33.03125 C 3.296875 -39.4375 4.800781 -45.195312 7.8125 -50.3125 C 10.820312 -55.425781 14.898438 -59.425781 20.046875 -62.3125 C 25.191406 -65.195312 30.835938 -66.640625 36.984375 -66.640625 C 43.203125 -66.640625 48.867188 -65.195312 53.984375 -62.3125 C 59.097656 -59.425781 63.144531 -55.425781 66.125 -50.3125 C 69.101562 -45.195312 70.59375 -39.4375 70.59375 -33.03125 C 70.59375 -26.570312 69.101562 -20.785156 66.125 -15.671875 C 63.144531 -10.554688 59.082031 -6.554688 53.9375 -3.671875 C 48.789062 -0.785156 43.140625 0.65625 36.984375 0.65625 Z M 36.984375 -11.109375 C 40.941406 -11.109375 44.425781 -12 47.4375 -13.78125 C 50.445312 -15.570312 52.800781 -18.128906 54.5 -21.453125 C 56.195312 -24.785156 57.046875 -28.644531 57.046875 -33.03125 C 57.046875 -37.425781 56.195312 -41.269531 54.5 -44.5625 C 52.800781 -47.863281 50.445312 -50.390625 47.4375 -52.140625 C 44.425781 -53.898438 40.941406 -54.78125 36.984375 -54.78125 C 33.035156 -54.78125 29.539062 -53.898438 26.5 -52.140625 C 23.457031 -50.390625 21.085938 -47.863281 19.390625 -44.5625 C 17.691406 -41.269531 16.84375 -37.425781 16.84375 -33.03125 C 16.84375 -28.644531 17.691406 -24.785156 19.390625 -21.453125 C 21.085938 -18.128906 23.457031 -15.570312 26.5 -13.78125 C 29.539062 -12 33.035156 -11.109375 36.984375 -11.109375 Z M 36.984375 -11.109375 "/></g></g></g><g fill="#000000" fill-opacity="1"><g transform="translate(382.211818, 99.946634)"><g><path d="M 19.484375 -65.703125 L 19.484375 -25.03125 C 19.484375 -20.582031 20.644531 -17.179688 22.96875 -14.828125 C 25.289062 -12.472656 28.550781 -11.296875 32.75 -11.296875 C 37.019531 -11.296875 40.316406 -12.472656 42.640625 -14.828125 C 44.960938 -17.179688 46.125 -20.582031 46.125 -25.03125 L 46.125 -65.703125 L 59.390625 -65.703125 L 59.390625 -25.125 C 59.390625 -19.539062 58.179688 -14.816406 55.765625 -10.953125 C 53.347656 -7.097656 50.113281 -4.195312 46.0625 -2.25 C 42.019531 -0.3125 37.519531 0.65625 32.5625 0.65625 C 27.664062 0.65625 23.222656 -0.3125 19.234375 -2.25 C 15.253906 -4.195312 12.101562 -7.097656 9.78125 -10.953125 C 7.46875 -14.816406 6.3125 -19.539062 6.3125 -25.125 L 6.3125 -65.703125 Z M 19.484375 -65.703125 "/></g></g></g><g fill="#000000" fill-opacity="1"><g transform="translate(443.110616, 99.946634)"><g><path d="M 51.203125 -65.703125 L 51.203125 -55.0625 L 33.703125 -55.0625 L 33.703125 0 L 20.515625 0 L 20.515625 -55.0625 L 3.015625 -55.0625 L 3.015625 -65.703125 Z M 51.203125 -65.703125 "/></g></g></g><g fill="#000000" fill-opacity="1"><g transform="translate(492.714408, 99.946634)"><g><path d="M 61 -65.703125 L 61 0 L 47.8125 0 L 47.8125 -27.953125 L 19.671875 -27.953125 L 19.671875 0 L 6.5 0 L 6.5 -65.703125 L 19.671875 -65.703125 L 19.671875 -38.6875 L 47.8125 -38.6875 L 47.8125 -65.703125 Z M 61 -65.703125 "/></g></g></g></g></g></g><g transform="matrix(1, 0, 0, 1, 359, 194)"><g clip-path="url(#55a49e3336)"><g fill="#ff7e00" fill-opacity="1"><g transform="translate(0.518473, 72.329235)"><g><path d="M 37.34375 -47.921875 L 37.34375 -40.15625 L 24.578125 -40.15625 L 24.578125 0 L 14.96875 0 L 14.96875 -40.15625 L 2.203125 -40.15625 L 2.203125 -47.921875 Z M 37.34375 -47.921875 "/></g></g></g><g fill="#ff7e00" fill-opacity="1"><g transform="translate(40.128331, 72.329235)"><g><path d="M 29.453125 0 L 18.875 -18.671875 L 14.34375 -18.671875 L 14.34375 0 L 4.734375 0 L 4.734375 -47.921875 L 22.71875 -47.921875 C 26.425781 -47.921875 29.582031 -47.269531 32.1875 -45.96875 C 34.800781 -44.664062 36.757812 -42.898438 38.0625 -40.671875 C 39.375 -38.453125 40.03125 -35.972656 40.03125 -33.234375 C 40.03125 -30.078125 39.113281 -27.226562 37.28125 -24.6875 C 35.445312 -22.144531 32.722656 -20.394531 29.109375 -19.4375 L 40.578125 0 Z M 14.34375 -25.890625 L 22.375 -25.890625 C 24.988281 -25.890625 26.9375 -26.515625 28.21875 -27.765625 C 29.5 -29.023438 30.140625 -30.78125 30.140625 -33.03125 C 30.140625 -35.21875 29.5 -36.914062 28.21875 -38.125 C 26.9375 -39.34375 24.988281 -39.953125 22.375 -39.953125 L 14.34375 -39.953125 Z M 14.34375 -25.890625 "/></g></g></g><g fill="#ff7e00" fill-opacity="1"><g transform="translate(84.131657, 72.329235)"><g><path d="M 34.125 -9.125 L 15.03125 -9.125 L 11.875 0 L 1.78125 0 L 19.015625 -47.984375 L 30.203125 -47.984375 L 47.4375 0 L 37.28125 0 Z M 31.515625 -16.828125 L 24.578125 -36.875 L 17.640625 -16.828125 Z M 31.515625 -16.828125 "/></g></g></g><g fill="#ff7e00" fill-opacity="1"><g transform="translate(133.283586, 72.329235)"><g><path d="M 45.71875 0 L 36.109375 0 L 14.34375 -32.890625 L 14.34375 0 L 4.734375 0 L 4.734375 -47.984375 L 14.34375 -47.984375 L 36.109375 -15.03125 L 36.109375 -47.984375 L 45.71875 -47.984375 Z M 45.71875 0 "/></g></g></g><g fill="#ff7e00" fill-opacity="1"><g transform="translate(183.739833, 72.329235)"><g><path d="M 21.28125 0.484375 C 17.9375 0.484375 14.925781 -0.0859375 12.25 -1.234375 C 9.570312 -2.378906 7.453125 -4.023438 5.890625 -6.171875 C 4.335938 -8.328125 3.539062 -10.867188 3.5 -13.796875 L 13.796875 -13.796875 C 13.929688 -11.828125 14.628906 -10.269531 15.890625 -9.125 C 17.148438 -7.988281 18.878906 -7.421875 21.078125 -7.421875 C 23.316406 -7.421875 25.078125 -7.957031 26.359375 -9.03125 C 27.640625 -10.101562 28.28125 -11.507812 28.28125 -13.25 C 28.28125 -14.664062 27.84375 -15.832031 26.96875 -16.75 C 26.101562 -17.664062 25.019531 -18.382812 23.71875 -18.90625 C 22.414062 -19.4375 20.617188 -20.023438 18.328125 -20.671875 C 15.210938 -21.578125 12.679688 -22.476562 10.734375 -23.375 C 8.796875 -24.269531 7.128906 -25.617188 5.734375 -27.421875 C 4.335938 -29.234375 3.640625 -31.648438 3.640625 -34.671875 C 3.640625 -37.503906 4.347656 -39.972656 5.765625 -42.078125 C 7.179688 -44.191406 9.171875 -45.804688 11.734375 -46.921875 C 14.296875 -48.046875 17.226562 -48.609375 20.53125 -48.609375 C 25.46875 -48.609375 29.484375 -47.40625 32.578125 -45 C 35.671875 -42.601562 37.375 -39.253906 37.6875 -34.953125 L 27.125 -34.953125 C 27.03125 -36.597656 26.328125 -37.957031 25.015625 -39.03125 C 23.710938 -40.101562 21.988281 -40.640625 19.84375 -40.640625 C 17.96875 -40.640625 16.46875 -40.160156 15.34375 -39.203125 C 14.21875 -38.242188 13.65625 -36.847656 13.65625 -35.015625 C 13.65625 -33.734375 14.078125 -32.664062 14.921875 -31.8125 C 15.773438 -30.96875 16.832031 -30.28125 18.09375 -29.75 C 19.351562 -29.226562 21.125 -28.625 23.40625 -27.9375 C 26.519531 -27.019531 29.0625 -26.101562 31.03125 -25.1875 C 33 -24.28125 34.691406 -22.910156 36.109375 -21.078125 C 37.523438 -19.242188 38.234375 -16.84375 38.234375 -13.875 C 38.234375 -11.3125 37.570312 -8.929688 36.25 -6.734375 C 34.925781 -4.535156 32.976562 -2.78125 30.40625 -1.46875 C 27.84375 -0.164062 24.800781 0.484375 21.28125 0.484375 Z M 21.28125 0.484375 "/></g></g></g><g fill="#ff7e00" fill-opacity="1"><g transform="translate(225.546407, 72.329235)"><g><path d="M 39.6875 -33.09375 C 39.6875 -30.53125 39.078125 -28.125 37.859375 -25.875 C 36.648438 -23.632812 34.75 -21.828125 32.15625 -20.453125 C 29.570312 -19.085938 26.3125 -18.40625 22.375 -18.40625 L 14.34375 -18.40625 L 14.34375 0 L 4.734375 0 L 4.734375 -47.921875 L 22.375 -47.921875 C 26.082031 -47.921875 29.238281 -47.28125 31.84375 -46 C 34.457031 -44.71875 36.414062 -42.953125 37.71875 -40.703125 C 39.03125 -38.460938 39.6875 -35.925781 39.6875 -33.09375 Z M 21.96875 -26.15625 C 24.625 -26.15625 26.59375 -26.757812 27.875 -27.96875 C 29.15625 -29.1875 29.796875 -30.894531 29.796875 -33.09375 C 29.796875 -37.757812 27.1875 -40.09375 21.96875 -40.09375 L 14.34375 -40.09375 L 14.34375 -26.15625 Z M 21.96875 -26.15625 "/></g></g></g><g fill="#ff7e00" fill-opacity="1"><g transform="translate(267.284354, 72.329235)"><g><path d="M 26.984375 0.484375 C 22.492188 0.484375 18.375 -0.566406 14.625 -2.671875 C 10.875 -4.773438 7.898438 -7.691406 5.703125 -11.421875 C 3.503906 -15.160156 2.40625 -19.382812 2.40625 -24.09375 C 2.40625 -28.757812 3.503906 -32.957031 5.703125 -36.6875 C 7.898438 -40.425781 10.875 -43.347656 14.625 -45.453125 C 18.375 -47.554688 22.492188 -48.609375 26.984375 -48.609375 C 31.515625 -48.609375 35.644531 -47.554688 39.375 -45.453125 C 43.101562 -43.347656 46.050781 -40.425781 48.21875 -36.6875 C 50.394531 -32.957031 51.484375 -28.757812 51.484375 -24.09375 C 51.484375 -19.382812 50.394531 -15.160156 48.21875 -11.421875 C 46.050781 -7.691406 43.085938 -4.773438 39.328125 -2.671875 C 35.578125 -0.566406 31.460938 0.484375 26.984375 0.484375 Z M 26.984375 -8.09375 C 29.867188 -8.09375 32.40625 -8.742188 34.59375 -10.046875 C 36.789062 -11.359375 38.507812 -13.226562 39.75 -15.65625 C 40.988281 -18.082031 41.609375 -20.894531 41.609375 -24.09375 C 41.609375 -27.300781 40.988281 -30.101562 39.75 -32.5 C 38.507812 -34.90625 36.789062 -36.75 34.59375 -38.03125 C 32.40625 -39.3125 29.867188 -39.953125 26.984375 -39.953125 C 24.097656 -39.953125 21.546875 -39.3125 19.328125 -38.03125 C 17.109375 -36.75 15.378906 -34.90625 14.140625 -32.5 C 12.910156 -30.101562 12.296875 -27.300781 12.296875 -24.09375 C 12.296875 -20.894531 12.910156 -18.082031 14.140625 -15.65625 C 15.378906 -13.226562 17.109375 -11.359375 19.328125 -10.046875 C 21.546875 -8.742188 24.097656 -8.09375 26.984375 -8.09375 Z M 26.984375 -8.09375 "/></g></g></g><g fill="#ff7e00" fill-opacity="1"><g transform="translate(321.172983, 72.329235)"><g><path d="M 29.453125 0 L 18.875 -18.671875 L 14.34375 -18.671875 L 14.34375 0 L 4.734375 0 L 4.734375 -47.921875 L 22.71875 -47.921875 C 26.425781 -47.921875 29.582031 -47.269531 32.1875 -45.96875 C 34.800781 -44.664062 36.757812 -42.898438 38.0625 -40.671875 C 39.375 -38.453125 40.03125 -35.972656 40.03125 -33.234375 C 40.03125 -30.078125 39.113281 -27.226562 37.28125 -24.6875 C 35.445312 -22.144531 32.722656 -20.394531 29.109375 -19.4375 L 40.578125 0 Z M 14.34375 -25.890625 L 22.375 -25.890625 C 24.988281 -25.890625 26.9375 -26.515625 28.21875 -27.765625 C 29.5 -29.023438 30.140625 -30.78125 30.140625 -33.03125 C 30.140625 -35.21875 29.5 -36.914062 28.21875 -38.125 C 26.9375 -39.34375 24.988281 -39.953125 22.375 -39.953125 L 14.34375 -39.953125 Z M 14.34375 -25.890625 "/></g></g></g><g fill="#ff7e00" fill-opacity="1"><g transform="translate(365.176327, 72.329235)"><g><path d="M 37.34375 -47.921875 L 37.34375 -40.15625 L 24.578125 -40.15625 L 24.578125 0 L 14.96875 0 L 14.96875 -40.15625 L 2.203125 -40.15625 L 2.203125 -47.921875 Z M 37.34375 -47.921875 "/></g></g></g></g></g><path stroke-linecap="round" transform="matrix(0.744829, -0.000000000000000092, 0.000000000000000092, 0.744829, 303.117482, 200.215504)" fill="none" stroke-linejoin="miter" d="M 1.997755 2.002508 L 668.509458 2.002508 " stroke="#ff7e00" stroke-width="4" stroke-opacity="1" stroke-miterlimit="4"/></g></g></svg>